<svg width="295" height="80" viewBox="0 0 295 80" fill="#124e66" xmlns="http://www.w3.org/2000/svg">
<path d="M290.054 39.2607C290.397 39.2472 290.754 39.3755 290.845 39.5483C290.938 39.721 290.228 39.5754 290.091 39.5187C289.956 39.4619 289.514 39.9567 289.346 40.1542C289.177 40.3516 288.011 40.7231 287.585 40.8218C287.159 40.9205 287.563 41.8695 287.442 41.946C287.321 42.0225 286.894 42.2224 286.76 42.2224C286.625 42.2212 286.26 41.9892 286.086 41.8287C285.912 41.6683 285.031 41.9966 284.74 42.1299C284.448 42.2631 283.277 42.6284 282.881 42.7419C282.485 42.8555 282.037 43.834 282.074 44.0623C282.111 44.2906 281.406 44.6781 281.438 44.9064C281.438 44.9064 281.438 44.9064 281.52 44.9212C282.014 45.0088 282.792 44.2721 282.516 43.9167C282.249 43.5761 282.249 43.5761 282.249 43.5761C282.499 43.5033 282.822 43.4441 282.967 43.4453C283.113 43.4465 283.755 43.3762 283.878 43.2627C284.001 43.1492 284.683 42.853 284.974 42.8727C284.974 42.8727 284.974 42.8727 284.974 42.8986C284.979 43.549 284.979 43.549 284.979 43.549C285.48 43.3836 286.098 43.1615 286.35 43.0541C286.603 42.9468 287.472 42.9344 287.731 43.0134C287.99 43.0924 288.728 43.3046 288.788 43.3059C288.849 43.3071 288.733 43.5342 288.397 43.8094C288.397 43.8094 288.397 43.8093 288.382 44.0056C288.316 44.8941 287.88 43.9476 287.7 44.1215C287.556 44.2622 287.556 44.2622 287.556 44.2622C287.349 44.4338 287.041 44.5029 286.868 44.414C286.697 44.3252 286.083 44.1956 286.239 44.5016C286.239 44.5016 286.239 44.5016 286.341 44.6596C286.407 44.7608 286.407 44.7608 286.407 44.7608C286.51 44.8521 286.629 45.0483 286.667 45.1976C286.706 45.3469 286.955 45.7357 286.557 45.6456C286.16 45.5555 285.408 45.9368 285.281 45.8405C285.154 45.7443 284.746 45.5962 284.658 45.7295C284.57 45.8628 283.745 46.2441 283.829 46.3589C283.913 46.4736 283.767 47.0326 283.865 47.0807C283.865 47.0807 283.865 47.0807 283.961 47.1079C284.194 47.1733 284.194 47.1733 284.194 47.1733C284.454 47.2362 284.574 47.488 284.459 47.7335C284.459 47.7335 284.459 47.7335 284.267 47.8125C284 47.9223 284 47.9224 284 47.9224C283.633 47.9236 283.361 47.625 283.398 47.2585C283.398 47.2585 283.398 47.2584 283.037 46.9413C282.911 46.8302 282.911 46.8302 282.911 46.8302C283.149 46.4242 283.299 46.0676 283.245 46.038C283.191 46.0084 282.974 46.0578 282.882 46.2157C282.791 46.3737 282.38 46.6661 282.226 46.8377C282.072 47.0092 281.712 47.4756 281.773 47.5139C281.835 47.5521 282.084 47.7212 282.192 47.8051C282.301 47.889 282.086 48.2987 281.993 48.4234C281.899 48.548 282.234 48.859 282.117 49.0046C282 49.1502 281.487 49.4278 281.342 49.4241C281.198 49.4204 280.589 49.5883 280.356 49.8203C280.123 50.0523 279.302 50.6162 279.204 50.5928C279.104 50.5681 279.081 50.3237 278.995 50.2275C278.909 50.1312 278.642 49.9634 278.439 50.1177C278.235 50.2719 278.376 50.9136 278.016 51.058C277.659 51.2024 276.375 51.6232 275.98 51.7219C275.98 51.7219 275.98 51.7219 275.626 51.7046C275.473 51.6972 275.473 51.6972 275.473 51.6972C275.286 51.422 275.04 51.3542 274.927 51.5455C274.813 51.7367 274.316 52.118 274.057 51.9934C274.057 51.9934 274.057 51.9934 273.842 52.0156C273.158 52.0872 273.158 52.0872 273.158 52.0872C272.551 51.8219 271.912 51.6898 271.735 51.7947C271.56 51.8996 270.941 51.4282 270.664 51.3233C270.664 51.3233 270.664 51.3233 270.388 51.2641C270.334 51.253 270.334 51.253 270.334 51.253C270.178 51.406 270.029 51.3097 270.003 51.0383C269.977 50.7668 269.826 49.9511 269.757 50.114C269.688 50.2769 269.37 50.5767 269.188 50.4521C269.188 50.4521 269.188 50.4521 269.106 50.3287C269.065 50.267 269.235 50.1004 269.191 50.0535C268.97 49.8141 268.97 49.8141 268.97 49.8141C268.797 49.5192 268.486 49.2057 268.278 49.1181C268.278 49.1181 268.278 49.1181 268.136 48.9984C268.038 48.9157 268.043 48.759 267.964 48.6529C267.482 48.0038 267.362 47.2165 266.667 46.6291C266.43 46.4292 266.43 46.4292 266.43 46.4292C266.401 45.9479 266.46 45.5037 266.562 45.442C266.665 45.3803 266.339 45.036 266.228 44.8484C266.117 44.6608 265.586 44.4017 265.249 44.7201C265.249 44.7201 265.249 44.7201 264.635 44.7015C264.189 44.688 263.934 45.1902 263.569 45.4395C263.003 45.822 263.003 45.8221 263.003 45.8221C262.306 45.922 261.705 46.2725 261.667 46.6007C261.629 46.929 260.402 47.2844 260.131 47.4954C259.859 47.7064 258.378 48.3913 257.664 48.8047C257.664 48.8047 257.664 48.8047 257.108 49.281C256.558 49.7524 256.558 49.7524 256.558 49.7524C255.805 50.1165 254.524 50.8457 253.711 51.3727C253.711 51.3727 253.711 51.3727 252.854 51.7379C252.404 51.9292 252.404 51.9292 252.404 51.9292C251.779 52.16 251.148 52.5178 251.004 52.7227C250.859 52.9288 250.274 53.4952 249.991 53.4582C249.991 53.4582 249.991 53.4582 249.72 53.373C249.645 53.3496 249.645 53.3496 249.645 53.3496C249.491 53.473 249.27 53.742 249.156 53.9493C249.043 54.1554 248.262 54.9921 247.635 55.3364C247.635 55.3364 247.635 55.3363 247.162 55.7497C246.644 56.2039 246.644 56.2039 246.644 56.2039C245.888 56.4359 245.225 56.7296 245.173 56.8567C245.173 56.8567 245.173 56.8567 245.204 57.0023C245.221 57.0825 245.221 57.0825 245.221 57.0825C245.064 57.1923 244.402 57.5872 243.75 57.9599C243.099 58.3326 241.281 59.648 240.955 59.8418C240.955 59.8418 240.955 59.8418 240.627 59.9676C240.369 60.0664 240.297 60.655 239.798 60.2021C239.785 60.191 239.785 60.191 239.785 60.191C239.679 60.2502 239.434 60.4946 239.241 60.734C239.049 60.9734 238.304 61.5237 238.187 61.5509C238.07 61.5768 237.193 62.0099 236.393 62.3764C235.593 62.7429 233.419 63.8708 233.23 63.9313C233.041 63.9918 232.497 63.7746 232.437 63.7364C232.376 63.6993 231.783 63.5327 231.173 63.3402C230.563 63.1477 228.631 63.2341 228.382 63.0527C228.382 63.0527 228.382 63.0527 228.155 62.8676C227.619 62.4307 227.619 62.4307 227.619 62.4307C227.081 61.9384 226.406 61.346 226.12 61.1128C225.833 60.8796 225.801 59.8837 225.713 59.7344C225.624 59.5851 225.094 59.0915 224.862 58.8768C224.63 58.662 224.48 57.7736 224.422 57.6465C224.364 57.5194 223.326 57.4515 222.35 57.9512C222.35 57.9512 222.35 57.9512 222.188 58.894C222.167 59.0162 222.167 59.0162 222.167 59.0162C221.835 59.1186 221.131 59.6814 220.599 60.2688C220.599 60.2688 220.599 60.2687 219.989 60.676C219.371 61.0894 218.948 61.641 218.21 62.0001C217.556 62.3184 217.227 63.0786 216.754 63.6438C216.723 63.6808 216.656 63.703 216.64 63.7413C216.45 64.1831 216.45 64.1831 216.45 64.1831C215.897 64.2991 215.389 64.5656 215.322 64.7754C215.254 64.9852 214.403 65.2567 214.194 65.3912C213.986 65.5257 213.192 66.2402 212.822 66.566C212.452 66.8917 210.921 68.106 210.274 68.5663C209.626 69.0254 207.442 70.2495 207.013 70.4395C206.585 70.6296 205.124 70.9146 204.791 70.8887C204.458 70.8628 203.572 70.4679 203.23 70.3569C202.888 70.2458 201.774 70.405 201.476 70.595C201.476 70.595 201.476 70.595 201.06 70.2865C200.89 70.1607 200.89 70.1607 200.89 70.1607C200.477 70.2619 199.998 70.3075 199.825 70.2606C199.652 70.2137 199.44 69.9459 199.73 69.9459C200.02 69.9459 200.468 69.5387 200.087 69.0414C199.704 68.5441 197.84 68.1973 197.841 68.0801C197.842 67.9629 197.869 67.4668 197.907 67.1891C197.946 66.9115 197.017 65.9712 196.661 65.4738C196.306 64.9765 195.651 63.2279 195.473 62.9157C195.295 62.6035 194.618 61.8014 194.489 62.0001C194.361 62.1987 193.681 62.7133 193.307 62.8688C193.307 62.8688 193.307 62.8688 193.097 63.0909C192.821 63.3822 192.821 63.3822 192.821 63.3822C192.643 63.7795 192.092 64.4027 191.595 64.7655C191.595 64.7655 191.596 64.7655 191.212 65.1444C190.84 65.5109 190.424 65.8675 190.162 66.2846C189.625 67.1373 189.625 67.1373 189.625 67.1373C188.686 67.8074 187.866 68.4009 187.806 68.4577C187.745 68.5132 187.207 68.876 186.767 69.1574C186.326 69.4387 184.741 70.4556 184.184 70.7518C183.627 71.0479 181.743 72.161 181.194 72.5041C180.645 72.8471 178.705 72.3004 178.473 72.2017C178.241 72.103 177.292 72.2894 177.066 72.2141C176.842 72.1388 176.21 71.9623 176.107 72.1067C176.005 72.2511 175.557 72.5337 175.337 72.4152C175.119 72.2955 174.324 71.5637 174.156 71.1047C173.988 70.6469 173.168 69.2499 172.949 69.0142C172.949 69.0142 172.949 69.0142 172.905 68.781C172.868 68.5873 172.868 68.5873 172.868 68.5873C173.044 68.3084 172.995 68.0813 172.758 68.0813C172.521 68.0813 171.947 68.0382 171.896 67.9863C171.844 67.9345 171.826 67.4606 171.862 67.025C171.862 67.025 171.862 67.025 171.461 66.7029C171.317 66.5869 171.317 66.5869 171.317 66.5869C171.223 66.4166 170.91 65.7355 170.621 65.0716C170.621 65.0716 170.621 65.0715 170.066 64.594C169.958 64.5014 169.798 64.3854 169.801 64.283C169.809 64.0584 169.809 64.0584 169.809 64.0584C169.999 63.8462 170.298 63.5463 170.474 63.392C170.474 63.392 170.474 63.3921 170.432 63.3168C170.262 63.012 170.262 63.012 170.262 63.012C170.126 63.2057 169.833 63.2452 169.611 63.0996C169.389 62.954 168.397 62.6208 168.123 62.8466C167.849 63.0724 168.363 63.8561 168.259 63.8906C168.154 63.9264 167.91 64.1411 167.947 64.2904C167.985 64.4397 168.218 64.9161 168.329 65.0308C168.329 65.0308 168.329 65.0308 168.439 65.0333C168.551 65.0358 168.688 64.9247 168.776 64.8371C168.834 64.7779 168.793 64.6261 168.851 64.6014C168.981 64.5446 169.186 64.4854 169.286 64.5323C169.387 64.5804 169.487 64.8001 169.435 64.8643C169.257 65.0839 169.257 65.0839 169.257 65.0839C168.991 65.306 168.86 65.5133 168.967 65.5429C169.075 65.5738 169.124 65.7342 168.839 65.8342C168.554 65.9341 168.286 66.6363 168.182 66.6844C168.182 66.6844 168.182 66.6844 168.094 66.6721C167.879 66.6437 167.654 66.5215 167.465 66.5549C167.347 66.5758 167.347 66.5758 167.347 66.5758C167.264 66.772 167.153 67.0682 167.099 67.2336C167.099 67.2336 167.099 67.2336 167.103 67.3903C167.105 67.5088 167.105 67.5087 167.105 67.5087C167.029 67.6408 166.784 67.8543 166.561 67.9826C166.338 68.1122 165.295 67.8777 164.989 67.9703C164.683 68.0628 163.573 67.7161 163.199 67.7148C162.826 67.7136 161.73 67.4298 161.379 67.3927C161.029 67.3557 159.965 67.1262 159.765 67.0225C159.565 66.9201 158.842 66.8251 158.742 66.6931C158.742 66.6931 158.742 66.693 158.779 66.5993C158.911 66.2611 159.048 66.5462 159.194 66.6129C159.281 66.6536 159.397 66.6819 159.492 66.6708C159.587 66.6597 159.587 66.6597 159.587 66.6597C159.682 66.598 159.713 66.5042 159.655 66.4524C159.597 66.3994 159.51 66.213 159.621 66.1809C159.732 66.1488 160.048 65.9366 159.909 65.8255C159.771 65.7145 159.125 65.4825 158.759 65.3258C158.394 65.169 158.353 64.378 158.363 64.3114C158.372 64.2448 158.295 64.0498 158.176 64.0288C158.055 64.0078 157.733 64.13 157.606 64.2127C157.478 64.2953 157.196 63.9844 157.243 63.8203C157.243 63.8203 157.243 63.8202 157.292 63.6648C157.312 63.6018 157.349 63.4908 157.327 63.4809C157.238 63.4427 157.09 63.392 157.033 63.4254C156.817 63.55 156.451 63.7141 156.46 63.8474C156.5 64.3756 156.5 64.3755 156.5 64.3755C156.022 64.4508 155.586 64.5458 155.528 64.5841C155.47 64.6236 155.314 64.8161 155.162 64.9778C155.01 65.1394 154.558 65.7355 154.365 65.8416C154.173 65.9477 153.797 66.5376 153.7 66.698C153.601 66.8584 152.997 67.315 152.884 67.5889C152.771 67.8641 151.814 68.4207 151.664 68.5367C151.513 68.6527 151.45 69.2944 151.166 69.456C150.883 69.6177 149.962 70.658 149.356 71.2923C149.356 71.2923 149.356 71.2923 148.817 71.8611C148.294 72.414 147.795 73.047 146.992 73.4111C146.851 73.474 146.851 73.474 146.851 73.474C146.734 73.5962 146.496 73.8923 146.322 74.133C146.148 74.3736 145.188 75.2016 144.576 75.4423C144.576 75.4423 144.576 75.4423 144.023 75.6619C143.744 75.773 143.744 75.773 143.744 75.773C143.544 76.0766 143.221 76.3875 143.024 76.4628C142.829 76.5381 142.252 76.7096 141.961 76.5665C141.961 76.5665 141.961 76.5665 141.761 76.8503C141.607 77.0687 141.607 77.0687 141.607 77.0687C141.449 77.3612 141.046 77.3143 140.714 76.9663C140.382 76.6183 138.747 76.8528 138.493 76.8034C138.239 76.754 137.608 76.49 137.2 76.8158C136.791 77.1415 135.192 76.8824 135.072 76.9576C134.953 77.0329 134.612 77.3377 134.461 77.4007C134.311 77.4636 133.574 77.4895 133.208 77.7684C132.841 78.0473 131.52 77.9461 131.606 77.8301C131.692 77.7141 131.616 77.3822 131.517 77.181C131.418 76.9799 131.448 76.2913 131.51 76.1284C131.573 75.9655 131.694 75.3497 131.708 75.1325C131.723 74.9141 131.673 73.8578 131.497 73.2593C131.497 73.2593 131.497 73.2593 130.642 73.2753C130.289 73.2815 130.289 73.2815 130.289 73.2815C130.281 73.5653 130.27 73.8677 130.266 73.9516C130.262 74.0367 130.082 74.2675 129.88 74.2774C129.88 74.2774 129.88 74.2774 129.808 74.2083C129.504 73.917 129.504 73.917 129.504 73.917C129.234 73.5481 128.929 73.0927 128.829 72.9051C128.728 72.7176 128.551 72.1709 128.702 72.1474C128.854 72.124 129.324 72.0265 129.377 71.987C129.377 71.987 129.377 71.987 129.377 71.9525C129.384 71.502 129.383 71.5021 129.383 71.5021C129.382 71.0084 129.238 70.5494 129.064 70.4815C128.89 70.4137 128.132 70.2187 127.898 70.0768C127.663 69.9336 126.914 69.1142 126.75 68.6083C126.75 68.6083 126.75 68.6082 127.023 68.1146C127.145 67.8925 127.145 67.8925 127.145 67.8925C127.089 67.4939 126.96 67.2187 126.859 67.2804C126.757 67.3421 126.563 67.2805 126.612 67.0324C126.661 66.7844 125.826 66.5388 125.811 66.403C125.796 66.2673 125.858 65.7959 125.902 65.6478C125.947 65.501 125.663 65.2197 125.42 65.4282C125.177 65.6367 124.534 66.3858 124.24 66.5425C123.946 66.6992 123.763 67.6186 123.56 67.8296C123.358 68.0406 122.599 68.786 122.508 69.1228C122.508 69.1228 122.508 69.1228 122.273 69.2931C122.018 69.4782 122.018 69.4782 122.018 69.4782C121.821 69.7115 121.581 70.0632 121.483 70.2569C121.386 70.4519 120.744 71.0924 120.425 71.3429C120.105 71.5921 119.663 72.525 119.63 72.5695C119.598 72.6139 119.146 72.7632 118.738 72.8582C118.328 72.952 118.323 73.9121 118.303 73.9355C118.283 73.9602 117.984 74.2958 117.686 74.6784C117.39 75.0609 115.736 75.6669 115.386 75.8631C115.036 76.0593 114.058 77.2822 113.365 77.7314C113.365 77.7314 113.365 77.7314 112.766 78.1695C112.422 78.4212 112.422 78.4212 112.422 78.4212C112.049 78.3324 111.701 78.3373 111.649 78.4323C111.598 78.5273 110.777 78.6211 110.203 78.5582C109.629 78.4952 107.972 78.2867 107.789 78.2583C107.607 78.2299 107.67 78.8519 107.725 79.0074C107.725 79.0074 107.725 79.0074 107.253 78.9777C107.029 78.9642 107.029 78.9642 107.029 78.9642C106.78 79.058 106.357 79.2381 106.088 79.3652C105.819 79.4923 104.802 79.8428 104.513 79.9724C104.224 80.1019 103.235 79.733 102.947 79.7515C102.66 79.77 101.971 79.0975 101.723 78.958C101.475 78.8198 101.852 78.1892 101.729 78.1053C101.607 78.0214 101.566 77.4266 101.676 76.9984C101.676 76.9984 101.676 76.9984 101.488 76.7775C101.19 76.427 101.19 76.427 101.19 76.427C100.748 76.6948 100.352 76.8861 100.309 76.8503C100.266 76.8145 100.338 76.4714 100.568 76.1642C100.568 76.1642 100.568 76.1642 99.9891 76.0655C99.7472 76.0235 99.4622 76.1691 99.1993 76.1654C99.1389 76.1642 99.1389 76.1642 99.1389 76.1642C99.0908 75.942 99.1425 75.7002 99.2561 75.6286C99.3684 75.557 99.783 75.3041 99.9151 75.2226C100.047 75.1412 100.304 74.766 100.099 74.6241C99.8953 74.4822 99.5152 73.991 99.2943 73.8331C99.2943 73.8331 99.2944 73.8331 99.0377 73.7245C98.4367 73.4703 98.4367 73.4703 98.4367 73.4703C97.969 72.973 97.2743 71.9759 96.8917 71.2552C96.8917 71.2552 96.8917 71.2552 96.3673 70.6913C95.8588 70.1446 95.8588 70.1446 95.8588 70.1446C95.7502 69.4807 95.3245 68.897 94.9123 68.8477C94.9123 68.8477 94.9123 68.8477 94.6705 68.7132C94.2127 68.4589 94.2127 68.459 94.2127 68.459C93.8363 68.6613 93.1847 68.9686 92.7651 69.1426C92.7651 69.1426 92.7652 69.1426 92.3406 69.1117C92.1555 69.0982 92.1555 69.0982 92.1555 69.0982C91.9766 68.9698 91.3534 68.9007 90.7697 68.9427C90.7697 68.9427 90.7697 68.9427 90.4859 69.1673C90.0034 69.5486 90.0034 69.5486 90.0034 69.5486C89.6591 69.3215 89.3197 69.1549 89.2482 69.1784C89.1766 69.2018 89.0297 69.3117 89.0865 69.3622C89.142 69.4128 89.084 69.5733 88.8101 69.5844C88.5361 69.5955 87.8093 69.9237 87.5736 69.7904C87.3379 69.6584 86.637 70.1668 86.3704 70.1668C86.1039 70.1668 85.2598 69.8781 85.1253 69.5251C85.1253 69.5251 85.1253 69.5251 84.9562 69.2215C84.8291 68.9933 84.8291 68.9933 84.8291 68.9933C84.6169 68.7711 84.3368 68.5219 84.2047 68.438C84.0727 68.3541 83.8666 67.7111 83.8863 67.6939C83.9061 67.6766 83.8975 67.6112 83.8172 67.5877C83.737 67.5643 83.2952 67.331 83.004 67.1361C83.004 67.1361 83.004 67.1361 83.2607 66.7313C83.4396 66.45 83.4396 66.4499 83.4396 66.4499C83.3606 66.0193 82.8868 65.4985 82.3883 65.2912C81.8885 65.0839 80.8507 63.9967 80.7124 63.7696C80.5742 63.5426 80.1325 62.8466 80.0436 62.7269C80.0436 62.7269 80.0436 62.7269 79.9547 62.622C79.8054 62.4455 79.8054 62.4455 79.8054 62.4455C79.6314 62.2629 79.2748 61.8643 79.0119 61.5608C78.7491 61.2572 77.562 60.2996 77.5188 59.6197C77.5188 59.6197 77.5188 59.6197 76.866 59.0718C76.4106 58.6904 76.4107 58.6904 76.4107 58.6904C76.2478 58.0018 75.8418 57.6304 75.5086 57.8636C75.1754 58.0981 74.5633 59.242 74.2857 59.4888C74.008 59.7356 73.7192 60.8426 73.5317 61.1091C73.3441 61.3757 72.4309 61.8137 72.3593 61.8421C72.3593 61.8421 72.3593 61.8421 72.363 61.8569C72.4198 62.0766 72.4198 62.0766 72.4198 62.0766C72.4766 62.3061 72.2359 62.6294 71.8855 62.7948C71.8855 62.7948 71.8855 62.7948 71.6448 63.0058C71.4474 63.1786 71.4474 63.1785 71.4474 63.1785C71.3561 63.4611 71.2796 63.7524 71.2771 63.8264C71.2747 63.9005 71.1994 64.0942 71.1105 64.0905C71.0217 64.0868 70.6243 64.2201 70.4997 64.399C70.4997 64.399 70.4997 64.399 70.3269 64.5915C70.0579 64.8926 70.6367 65.3677 69.937 65.6182C69.6346 65.7268 69.4829 66.1192 69.2718 66.387C69.2175 66.4561 69.2323 66.5795 69.1645 66.6178C68.8239 66.8091 68.8239 66.8091 68.8239 66.8091C68.6783 67.1299 68.4043 67.5211 68.2142 67.679C68.0254 67.837 67.2961 68.5293 66.9111 68.8106C66.9111 68.8106 66.9111 68.8106 66.6643 69.171C66.4299 69.5128 65.708 69.7448 65.6845 70.0496C65.6327 70.6999 64.6603 70.4198 64.5369 71.0257C64.453 71.4366 64.453 71.4366 64.453 71.4366C63.8644 71.8574 63.2794 72.14 63.1535 72.0648C63.0277 71.9895 62.4477 71.7353 62.1182 71.6489C61.7887 71.5625 61.2383 72.3375 61.2198 72.4041C61.2001 72.4707 61.0483 72.6262 60.9743 72.4288C60.9743 72.4288 60.9743 72.4288 60.9175 72.3226C60.8817 72.24 60.8817 72.24 60.8817 72.24C60.783 72.1302 60.5103 72.145 60.2771 72.2758C60.2771 72.2758 60.277 72.2758 60.0685 72.3955C59.9476 72.4646 59.9476 72.4646 59.9476 72.4646C59.8254 72.5399 59.4947 72.5263 59.2121 72.435C58.9295 72.3436 58.1533 73.0396 57.7819 73.2223C57.4116 73.4037 56.1751 73.8862 55.9333 74.1021C55.6926 74.3193 54.4191 74.323 54.1513 74.3206C53.8836 74.3168 53.1308 74.4859 53.0173 74.4193C53.0173 74.4193 53.0173 74.4193 53.0074 74.3465C53 74.2897 53 74.2897 53 74.2897C53.137 74.2058 52.7088 74.0281 52.0498 73.8948C52.0498 73.8948 52.0498 73.8948 51.4822 73.7208C51.2551 73.6505 51.0762 73.4444 50.9133 73.2753C50.685 73.0384 50.685 73.0384 50.685 73.0384C50.8824 72.8447 50.9182 72.6225 50.7652 72.5423C50.6122 72.4633 50.2358 71.8204 49.8039 71.4169C49.8039 71.4169 49.8039 71.4169 49.8755 70.8752C49.8792 70.8493 49.504 70.7727 49.3004 70.748C48.597 70.6654 48.597 70.6654 48.597 70.6654C48.5637 70.2113 48.4391 69.7127 48.3218 69.5572C48.2046 69.4017 48.0762 68.9081 48.3638 68.96C48.3638 68.96 48.3638 68.96 48.5785 68.9809C48.6834 68.9908 48.8364 68.9883 48.8919 68.9365C48.9413 68.8908 48.8919 68.6946 48.8747 68.6946C48.1713 68.6576 47.7085 68.3071 47.2606 67.9184C46.8422 67.5556 46.8422 67.5557 46.8422 67.5557C46.3869 67.1953 46.0377 66.7942 46.0648 66.6634C46.092 66.5326 46.0895 66.2278 46.0031 66.2575C45.9167 66.2871 45.6576 66.1896 45.6477 65.9687C45.6378 65.7466 45.1701 65.195 45.2541 65.0234C45.2541 65.0234 45.2541 65.0234 45.1714 64.8618C45.0727 64.6693 45.0726 64.6693 45.0726 64.6693C44.9246 64.4755 44.7197 64.3237 44.6161 64.3299C44.5124 64.3373 44.2113 64.1818 44.1866 63.9597C44.1866 63.9597 44.1866 63.9597 43.8016 63.9399C43.5634 63.9276 43.3216 63.6833 43.1069 63.7055C42.8193 63.7351 42.3973 63.8721 42.3121 64.051C41.9555 64.8075 41.9555 64.8075 41.9555 64.8075C41.0831 65.2135 40.2735 65.3899 40.1563 65.2011C40.0403 65.0123 39.6059 64.5261 39.585 64.7581C39.564 64.9901 39.1271 65.5849 38.6582 65.5923C38.1905 65.5997 36.8751 65.7071 36.7517 65.77C36.6283 65.8317 36.2482 66.2167 36.2038 66.5746C36.1593 66.9325 34.755 66.8522 34.4699 67.0164C34.1849 67.1805 33.1767 67.9172 32.7744 68.2183C32.7744 68.2183 32.7744 68.2183 32.3067 67.7642C32.2697 67.7284 32.2697 67.7284 32.2697 67.7284C32.1216 67.7642 31.5046 67.7469 30.9011 67.6914C30.9011 67.6914 30.9012 67.6914 30.4902 67.336C30.0966 66.9954 29.788 66.6967 29.8436 66.1797C29.872 65.9107 29.872 65.9107 29.872 65.9107C29.6992 65.5997 29.3426 65.3085 29.0797 65.264C28.8169 65.2196 28.7268 64.6668 28.5565 64.6976C28.3862 64.7285 27.7754 64.8346 27.5619 64.8235C27.3484 64.8124 27.3669 64.5113 27.4385 64.4163C27.51 64.3225 27.0596 64.1485 26.972 64.0646C26.972 64.0646 26.972 64.0646 26.9868 63.9979C27.1694 63.1699 27.1695 63.1699 27.1695 63.1699C26.6647 62.9021 26.508 62.7405 26.8227 62.8083C27.1374 62.8762 27.7186 62.9626 27.6902 62.3777C27.6902 62.3777 27.6902 62.3777 26.9017 62.3259C26.7363 62.3148 26.7363 62.3148 26.7363 62.3148C26.5524 62.3185 26.3316 62.316 26.2452 62.3098C26.16 62.3024 25.7688 62.2049 25.949 62.142C26.1292 62.0803 26.5006 61.6891 26.16 61.483C25.8194 61.2769 24.6582 61.3905 24.5718 61.3041C24.5718 61.3041 24.5718 61.3041 24.5286 61.2078C24.4052 60.9326 24.4053 60.9327 24.4053 60.9327C24.2954 60.6229 24.2238 60.191 24.2473 59.9726C24.2707 59.7541 23.3502 59.3975 22.8208 59.3469C22.8208 59.3469 22.8208 59.3469 22.3407 59.3765C22.2704 59.3802 22.2704 59.3803 22.2704 59.3803C22.1606 59.6826 22.0766 59.9652 22.0828 60.0108C22.089 60.0565 21.952 60.1528 21.8262 60.2046C21.6991 60.2564 21.4263 60.481 21.488 60.5711C21.5497 60.6612 21.2412 60.9623 20.9981 61.0647C20.9981 61.0647 20.9981 61.0647 20.8636 61.2103C20.6267 61.467 20.6267 61.467 20.6267 61.467C20.4157 61.7656 20.0899 61.947 19.9023 61.8705C19.7147 61.794 18.841 62.0803 18.3919 62.1161C18.3919 62.1161 18.3918 62.1161 17.9809 62.0531C17.5688 61.9902 17.5688 61.9902 17.5688 61.9902C17.1196 61.9075 16.5125 61.9865 16.2188 62.1642C16.2188 62.1642 16.2188 62.1642 16.204 62.3394C16.1583 62.8923 16.1583 62.8923 16.1583 62.8923C15.6375 63.0502 14.9835 63.3192 14.7058 63.4895C14.4282 63.6611 13.6051 64.2756 13.4249 64.4015C13.2448 64.5274 12.5451 64.3731 12.2847 64.2497C12.0243 64.1263 11.8306 63.1132 11.8318 62.6677C11.8331 62.2234 11.4591 60.9228 10.9988 60.708C10.9988 60.708 10.9988 60.708 10.6274 60.7229C10.2757 60.7364 10.2757 60.7364 10.2757 60.7364C9.78579 61.0326 9.40818 61.0277 9.43533 60.7253C9.46248 60.423 9.43287 59.6196 9.3724 59.5579C9.31317 59.4962 9.08239 59.4012 9.00341 59.4839C8.92443 59.5666 8.57397 59.8195 8.48635 59.7714C8.39873 59.7233 8.10875 59.3654 7.88662 59.1285C7.6645 58.8916 6.49465 58.5719 6.25401 58.2807C6.01338 57.9895 5.72956 56.9097 5.65305 56.7209C5.57654 56.5321 4.84354 56.7382 4.61278 56.595C4.61278 56.595 4.61276 56.5951 4.50293 56.4223C4.33881 56.1644 4.28821 55.8621 4.1463 55.593C4.07842 55.4647 3.93775 55.3067 3.7909 55.2722C3.29113 55.1512 3.29113 55.1513 3.29113 55.1513C2.72718 55.0575 2.07439 54.9057 1.83992 54.8144C1.83992 54.8144 1.83993 54.8144 1.84117 54.7292C1.8461 54.4639 1.8461 54.4639 1.8461 54.4639C1.93372 54.1739 1.78808 53.9123 1.524 53.8839C1.25868 53.8555 0.993388 53.1151 0.787307 52.8844C0.787307 52.8844 0.787292 52.8843 0.540487 52.7079C0.356618 52.5771 0.220896 52.3624 0.160429 52.1649C0.0580051 51.8305 0.0579954 51.8305 0.0579954 51.8305C0.245567 51.1394 0.42574 50.5385 0.457825 50.4928C0.457825 50.4928 0.457813 50.4928 0.445473 50.4805C-9.34129e-06 50.0486 0 50.0486 0 50.0486C0.241868 49.5722 0.440557 48.9824 0.443025 48.7368C0.445493 48.4912 0.645384 47.5275 0.753978 47.0166C0.753978 47.0166 0.753984 47.0166 0.845302 46.5501C0.877387 46.3872 0.877388 46.3872 0.877388 46.3872C1.20317 46.2367 1.38087 46.0861 1.27104 46.0528C1.16121 46.0195 1.11678 45.8467 1.40801 45.7394C1.69924 45.6308 1.19082 45.0434 1.23771 45.01C1.28461 44.9767 1.52277 44.8916 1.65234 44.8311C1.78191 44.7707 1.54129 44.2413 1.35619 44.0352C1.17109 43.8291 2.3829 43.2109 2.88392 42.7617C2.88392 42.7617 2.88391 42.7617 2.29281 42.1903C2.24962 42.1483 2.22618 42.041 2.26073 42.0052C2.64451 41.5893 2.64452 41.5893 2.64452 41.5893C3.07889 41.1389 3.5441 40.6416 3.6786 40.4849C3.81311 40.3282 4.10067 39.8679 4.0439 39.8161C3.98714 39.7642 4.37706 39.6988 5.00271 39.7568C5.00271 39.7568 5.00274 39.7568 4.22531 39.125C4.18828 39.0942 4.46592 38.8671 4.47826 38.7239C4.51652 38.276 4.51653 38.276 4.51653 38.276C4.70286 37.8169 4.95829 37.2456 5.08416 37.0049C5.21003 36.7643 5.68391 35.9696 5.83076 35.6944C5.97761 35.4193 6.38483 34.5628 6.49466 34.437C6.60449 34.3111 7.16968 34.4419 7.24126 34.0211C7.31283 33.6015 7.98537 32.6501 7.82618 32.333C7.82618 32.333 7.82615 32.333 7.8644 32.3157C8.22968 32.1479 8.2297 32.1478 8.2297 32.1478C8.39506 31.8356 8.71344 31.5358 8.93679 31.4815C9.16015 31.4272 9.51432 30.7731 9.86849 30.6177C9.86849 30.6177 9.86847 30.6176 9.87093 30.1808C9.8734 29.834 10.1572 29.4663 10.4053 29.1541C10.5065 29.027 10.5065 29.027 10.5065 29.027C10.8174 28.9998 11.1877 28.9888 11.3308 29.0023C11.4727 29.0159 11.3357 28.6753 11.1877 28.5914C11.0396 28.5062 11.6023 28.1656 11.701 27.9201C11.701 27.9201 11.701 27.9201 11.8552 27.7399C12.0107 27.5585 12.3316 27.4697 12.4834 27.287C12.5377 27.2216 12.5377 27.2216 12.5377 27.2216C12.3427 26.9934 12.6475 26.6441 13.2127 26.4454C13.2127 26.4454 13.2127 26.4454 13.5088 26.0074C13.7334 25.6754 13.7334 25.6754 13.7334 25.6754C13.9802 25.3114 14.4196 24.6586 14.7083 24.2254C14.7083 24.2254 14.7083 24.2254 15.1106 23.9823C15.4857 23.7565 15.4858 23.7565 15.4858 23.7565C15.7683 23.427 16.0534 22.9531 16.1188 22.7026C16.1842 22.4521 17.0073 21.9252 17.1295 21.6747C17.2516 21.4242 18.0328 21.0663 17.9538 20.8541C17.9538 20.8541 17.9538 20.8541 18.0402 20.7751C18.1993 20.6282 18.5103 20.5974 18.7004 20.4641C18.9472 20.2914 18.9472 20.2913 18.9472 20.2913C19.2693 20.184 19.8036 19.9631 20.1343 19.8015C20.1343 19.8015 20.1343 19.8015 20.1145 19.7854C19.5432 19.3165 19.5432 19.3165 19.5432 19.3165C20.0257 19.0648 20.6316 18.8217 20.8883 18.7748C21.145 18.7279 21.7546 19.1141 21.9088 19.1413C22.0618 19.1684 22.6258 19.2363 22.8195 19.256C23.0133 19.2758 23.8154 19.7299 24.0202 19.8484C24.2251 19.9656 25.2407 19.5287 25.506 19.3436C25.7713 19.1585 26.7881 18.6686 27.1053 18.5699C27.4224 18.4699 28.4368 18.0948 28.7009 18.0269C28.7009 18.0269 28.7009 18.0269 28.9267 18.2071C28.9539 18.2293 29.1982 18.1392 29.1957 18.1084C29.1451 17.4272 29.1451 17.4272 29.1451 17.4272C29.6042 17.6456 30.2928 17.9344 30.6741 18.0689C31.0554 18.2034 32.3943 18.7797 32.8262 19.0104C33.2581 19.2424 34.0936 20.4037 34.3243 20.5962C34.3243 20.5962 34.3243 20.5962 34.5563 20.7578C34.6303 20.8097 34.6303 20.8097 34.6303 20.8097C34.7439 20.8356 35.1351 21.1305 35.4991 21.4637C35.4991 21.4637 35.4991 21.4637 35.4954 21.7056C35.4868 22.3263 35.4868 22.3263 35.4868 22.3263C36.0149 22.4003 36.4567 22.5496 36.4678 22.6594C36.4789 22.7693 36.2987 22.8988 36.1568 22.9186C36.0149 22.9371 35.6299 23.1432 35.9014 23.3209C36.1729 23.4986 36.8639 24.1686 36.8318 24.4142C36.8318 24.4142 36.8318 24.4142 36.9071 24.6685C36.9775 24.9054 37.1416 25.1509 37.3501 25.3249C37.5599 25.5002 37.5599 25.5002 37.5599 25.5002C37.8808 25.6211 37.9955 25.805 37.8166 25.9062C37.6377 26.0086 38.4052 26.3702 38.6199 26.5565C38.6199 26.5565 38.62 26.5565 38.7347 26.7663C38.7829 26.8539 38.5496 27.0279 38.578 27.1402C38.6162 27.2957 38.6162 27.2957 38.6162 27.2957C38.7717 27.4462 39.0543 27.6893 39.2456 27.8374C39.2456 27.8374 39.2456 27.8374 39.3419 27.8066C39.7306 27.6807 39.3357 27.5832 39.2925 27.4623C39.2518 27.3487 39.2518 27.3487 39.2518 27.3487C39.274 27.2179 39.4825 27.0526 39.7133 26.981C39.9453 26.9107 40.3957 26.269 40.5351 26.1554C40.6746 26.0419 41.2077 25.5742 41.4076 25.4101C41.6075 25.246 41.7963 24.2809 42.0283 24.2809C42.2603 24.2809 42.9625 24.1699 42.8823 24.0342C42.8021 23.8984 42.9069 23.5615 43.271 23.5479C43.635 23.5344 43.4376 22.7224 43.6326 22.6755C43.8275 22.6286 44.6358 21.7339 45.4539 21.165C45.4539 21.165 45.4539 21.165 45.8846 20.4481C46.1117 20.0705 46.4498 20.2099 46.709 20.2333C47.384 20.295 47.379 20.3259 47.2482 19.8175C47.1581 19.4683 47.1581 19.4683 47.1581 19.4683C47.5012 19.4744 47.8776 19.5065 47.9948 19.5399C48.1108 19.5732 48.4477 19.3769 48.5119 19.3239C48.5761 19.2708 48.9524 19.0771 49.2029 19.0067C49.4534 18.9364 50.4493 19.2178 50.8195 19.3325C50.8195 19.3325 50.8195 19.3325 51.1416 19.4621C51.2835 19.5189 51.3748 19.6534 51.5007 19.7422C52.3633 20.3518 52.3632 20.3518 52.3632 20.3518C53.0864 20.0088 53.8379 19.5991 54.0341 19.4424C54.2303 19.2844 55.1682 18.8895 55.6754 18.9253C56.1826 18.9611 57.6547 18.2651 58.041 18.1146C58.4272 17.964 59.8266 18.6427 60.303 18.7649C60.303 18.7649 60.303 18.7649 60.7546 18.8599C61.2532 18.9648 61.2531 18.9648 61.2531 18.9648C61.8097 19.0783 62.2169 19.7965 62.1589 20.5591C62.1589 20.5591 62.1589 20.5591 62.8179 21.0799C63.0931 21.2971 62.8599 21.4513 62.7229 21.6513C62.671 21.7265 62.6711 21.7265 62.6711 21.7265C62.9142 21.9314 63.3189 22.0486 63.5694 21.9869C63.5694 21.9869 63.5694 21.9869 63.578 21.9067C63.6101 21.5896 63.9236 21.4563 64.0889 21.6118C64.2962 21.8067 64.2962 21.8068 64.2962 21.8068C64.3518 22.1585 64.3111 22.5656 64.2062 22.7113C64.1013 22.8581 63.5571 23.1901 63.8754 23.1901C64.1938 23.1901 64.875 23.2172 64.8824 23.2493C64.8911 23.2814 64.8232 23.3986 64.7134 23.4369C64.6035 23.4751 64.3703 23.696 64.5665 23.8009C64.7627 23.9046 65.091 24.3279 64.9244 24.545C64.9244 24.545 64.9244 24.545 64.9528 24.5635C65.5081 24.9276 65.508 24.9276 65.508 24.9276C65.8178 25.4989 66.2571 26.2048 66.4854 26.4973C66.7137 26.7897 67.4986 27.6511 67.538 27.4487C67.5775 27.2463 67.7972 26.7762 67.9564 26.7576C68.1155 26.7379 68.6536 26.6071 68.487 26.5478C68.3204 26.4886 68.0588 26.0481 68.4142 25.7519C68.7696 25.4557 70.0147 24.7684 70.1233 24.6129C70.1233 24.6129 70.1233 24.6129 70.4207 24.5364C70.6145 24.487 70.6144 24.487 70.6144 24.487C70.6243 24.1662 70.6946 23.8675 70.7699 23.8231C70.8452 23.7799 71.0883 23.7972 71.1771 23.8392C71.266 23.8811 71.3771 23.6146 71.2475 23.1592C71.2475 23.1592 71.2475 23.1592 72.0792 23.1827C72.1397 23.1839 72.2569 22.8162 72.2717 22.6162C72.2866 22.4176 72.2865 22.4176 72.2865 22.4176C72.4482 22.1955 73.3947 21.4884 74.3905 20.8467C74.3905 20.8467 74.3906 20.8467 75.0322 20.0384C75.1631 19.8743 75.163 19.8743 75.163 19.8743C75.4419 19.778 75.7739 19.5744 75.8998 19.4239C76.0256 19.2733 76.4699 18.9117 76.5316 18.9524C76.5933 18.9932 76.85 18.9932 76.9721 18.8624C76.9721 18.8624 76.9721 18.8624 76.9462 18.8377C76.5649 18.47 76.829 18.3786 77.2325 18.2058C77.7434 17.9874 77.7434 17.9875 77.7434 17.9875C78.2395 17.6456 79.0045 17.1496 79.4426 16.8855C79.4426 16.8855 79.4426 16.8854 79.9868 17.2125C80.1078 17.2853 80.1078 17.2853 80.1078 17.2853C80.4286 17.1434 80.7964 16.9151 80.9259 16.7793C81.0555 16.6436 81.8255 16.4523 82.3833 16.6362C82.9411 16.8201 84.4836 17.3704 84.7687 17.3914C84.7687 17.3914 84.7687 17.3914 85.0797 17.3211C85.7497 17.1681 86.0989 16.6337 86.8912 16.5671C87.5835 16.5091 87.5835 16.5091 87.5835 16.5091C88.2819 16.5917 88.9939 16.7584 89.1667 16.8805C89.3395 17.0015 90.0824 16.8028 90.3008 16.9287C90.5192 17.0545 91.2078 16.7818 91.3102 16.8682C91.4126 16.9546 91.9667 17.4642 92.2715 17.8591C92.5763 18.254 93.3279 19.5275 93.334 19.7805C93.3402 20.0334 93.4796 20.7048 93.5673 20.6677C93.6549 20.6307 94.0041 20.8195 94.0103 21.228C94.0164 21.6364 95.1789 22.4324 95.2048 22.8137C95.2048 22.8137 95.2048 22.8137 95.211 23.1605C95.2122 23.2555 95.1271 23.3517 95.1258 23.448C95.1184 23.6393 95.1184 23.6393 95.1184 23.6393C95.1406 23.8503 95.3331 24.1884 95.5454 24.3908C95.5454 24.3908 95.5454 24.3908 95.7403 24.4661C96.4585 24.7425 96.4585 24.7425 96.4585 24.7425C96.5832 25.3114 96.7942 26.0444 96.9263 26.3726C97.0583 26.6996 97.5112 27.4783 97.6087 27.3475C97.7062 27.2167 98.159 26.981 98.338 26.9193C98.338 26.9193 98.338 26.9193 98.1492 26.7095C98.0529 26.6034 98.0529 26.6034 98.0529 26.6034C98.0788 26.4208 98.3602 26.09 98.6773 25.8691C98.9945 25.6483 99.6016 24.6487 99.7423 24.408C99.883 24.1674 100.87 23.4739 101.265 23.1222C101.265 23.1222 101.265 23.1222 101.337 22.6644C101.349 22.5842 101.393 22.4546 101.454 22.441C101.95 22.3263 101.95 22.3263 101.95 22.3263C102.012 21.9622 102.176 21.5464 102.316 21.402C102.457 21.2576 102.796 20.7183 102.852 20.5764C102.908 20.4345 103.405 20.0927 103.768 19.8434C104.13 19.5942 104.794 18.6316 104.873 18.5551C104.952 18.4786 105.461 18.3095 105.78 18.291C106.1 18.2725 105.88 17.5901 106.122 17.5358C106.364 17.4815 106.427 16.7041 106.531 16.4289C106.634 16.1537 107.631 15.7859 107.758 15.7181C107.886 15.649 108.014 15.3133 108.057 15.1122C108.102 14.9123 108.886 14.5729 109.141 14.4902C109.394 14.4088 109.691 13.6387 110.074 13.4265C110.456 13.2142 111.679 12.5837 111.944 12.4911C112.21 12.3986 112.651 12.2961 112.846 12.1999C113.041 12.1036 114.059 12.2899 114.307 12.5207C114.556 12.7515 115.813 13.0612 116.012 13.1094C116.21 13.1587 117.115 12.8502 117.489 12.7194C117.863 12.5886 118.873 12.8366 118.741 13.0279C118.741 13.0279 118.741 13.0279 118.728 13.2056C118.723 13.2723 118.723 13.2722 118.723 13.2722C118.979 13.3586 119.698 13.1439 120.32 12.7959C120.32 12.7959 120.32 12.7959 120.876 12.9218C121.783 13.1266 122.853 13.2846 123.183 14.2249C123.237 14.3779 123.237 14.3779 123.237 14.3779C123.285 14.5482 123.332 14.9838 123.342 15.3466C123.342 15.3466 123.342 15.3467 123.759 15.6046C123.971 15.7366 124.201 15.8612 124.362 16.0291C124.419 16.0883 124.339 16.324 124.243 16.3696C124.098 16.44 124.098 16.44 124.098 16.44C123.885 16.4585 123.727 16.6621 123.749 16.8941C123.749 16.8941 123.749 16.8941 124.188 17.0126C124.468 17.0878 124.468 17.0879 124.468 17.0879C124.6 17.5975 124.811 18.2848 124.936 18.6155C125.062 18.9463 125.568 20.0384 125.786 20.3037C126.004 20.569 126.614 21.2379 126.489 21.2749C126.363 21.3119 126.421 21.4094 126.839 21.4279C126.839 21.4279 126.839 21.4279 126.582 21.7944C126.252 22.2683 126.846 22.267 127.003 22.4682C127.176 22.6891 127.176 22.6891 127.176 22.6891C127.297 22.947 127.491 23.237 127.609 23.3332C127.726 23.4295 128.195 23.4122 128.333 23.353C128.472 23.2937 128.963 22.8088 129.281 22.4891C129.599 22.1695 130.539 21.1737 130.615 20.9516C130.615 20.9516 130.615 20.9516 130.732 20.7677C130.852 20.5789 130.852 20.5789 130.852 20.5789C131.041 20.4086 131.412 20.1519 131.68 20.0063C131.947 19.8619 132.754 19.2906 132.912 19.0882C133.07 18.8858 133.816 18.3083 134.149 18.296C134.149 18.296 134.149 18.2959 134.47 18.3243C135.004 18.3712 135.506 18.2861 135.739 17.8863C135.976 17.479 135.976 17.479 135.976 17.479C136.429 17.2409 136.888 17.0545 136.996 17.0669C137.105 17.078 137.387 16.9928 137.384 16.8521C137.38 16.7115 138.038 16.2512 138.809 15.8341C138.809 15.8341 138.809 15.8341 139.444 15.3689C139.654 15.2158 140.105 15.2491 140.166 14.8728C140.168 14.8629 140.525 14.8752 140.712 14.9036C140.933 14.9369 140.933 14.9369 140.933 14.9369C141.289 15.0258 141.493 15.0171 141.387 14.9197C141.279 14.8222 141.333 14.6741 141.639 14.7123C141.943 14.7518 142.296 14.0583 142.525 14.0262C142.752 13.9929 143.37 13.7967 143.4 13.661C143.429 13.5252 144.171 12.8872 144.334 12.6738C144.497 12.4603 145.299 12.8083 145.41 12.7737C145.41 12.7737 145.41 12.7737 145.411 12.7367C145.441 12.0901 145.441 12.09 145.441 12.09C145.924 12.2788 146.562 12.5602 146.856 12.7145C146.856 12.7145 146.856 12.7144 147.15 12.4405C147.182 12.4096 147.369 12.443 147.369 12.443C147.355 13.018 147.355 13.018 147.355 13.018C147.859 12.9662 148.522 13.1341 148.827 13.392C148.827 13.392 148.827 13.3919 149.344 13.4697C149.818 13.5413 149.818 13.5412 149.818 13.5412C150.33 13.9361 151.011 14.0386 151.332 13.7671C151.653 13.4956 152.984 13.6301 153.077 13.5795C153.077 13.5795 153.077 13.5795 153.092 13.5191C153.143 13.3154 153.143 13.3154 153.143 13.3154C153.343 13.3241 153.593 13.3389 153.697 13.3488C153.802 13.3574 154.482 13.2315 154.997 13.1229C154.997 13.1229 154.997 13.1229 155.874 13.1501C156.179 13.1587 156.179 13.1587 156.179 13.1587C156.516 13.0686 156.933 13.0649 157.106 13.1513C157.279 13.2377 157.715 12.9526 157.826 13.018C157.826 13.018 157.826 13.018 157.852 13.0945C158.098 13.8053 158.098 13.8053 158.098 13.8053C158.9 13.8942 159.838 14.004 160.182 14.0484C160.182 14.0484 160.182 14.0485 160.471 14.141C160.924 14.2854 160.924 14.2854 160.924 14.2854C160.699 14.5186 160.722 14.9518 160.972 15.2467C160.972 15.2467 160.972 15.2467 161.146 15.5601C161.353 15.9328 161.353 15.9328 161.353 15.9328C161.625 16.3462 161.967 16.8645 162.112 17.0854C162.258 17.3063 162.83 17.8986 162.953 17.9541C163.075 18.0097 163.393 18.27 163.24 18.3527C163.087 18.4354 162.717 18.7686 162.953 18.8056C163.188 18.8414 163.594 19.108 163.271 19.3066C163.271 19.3066 163.271 19.3066 163.217 19.4991C163.161 19.699 163.441 19.9495 163.433 20.1729C163.423 20.4185 163.423 20.4185 163.423 20.4185C163.442 20.6838 163.498 21.0676 163.547 21.2712C163.547 21.2712 163.547 21.2712 163.488 21.4958C163.42 21.7524 163.42 21.7525 163.42 21.7525C163.578 22.1004 163.915 22.2757 164.167 22.1412C164.42 22.0067 165.06 21.7241 165.101 21.534C165.143 21.344 165.776 21.0281 166.017 20.9442C166.257 20.8603 166.742 20.2321 167.027 20.2321C167.312 20.2321 168.181 20.1211 168.112 19.9853C168.043 19.8496 167.985 19.3115 168.172 19.1585C168.36 19.0055 169.297 18.4218 169.722 18.1726C169.722 18.1726 169.722 18.1726 170.098 18.1898C170.686 18.2182 170.97 17.9109 171.387 17.732C171.792 17.5593 171.792 17.5592 171.792 17.5592C172.307 17.4716 172.701 17.3482 172.667 17.2853C172.632 17.2224 172.733 16.9928 172.974 16.9287C173.214 16.8645 173.632 16.3252 173.782 16.3536C173.782 16.3536 173.782 16.3536 173.935 16.3795C174.077 16.403 174.077 16.4029 174.077 16.4029C174.246 16.377 174.313 16.2697 174.223 16.1648C174.223 16.1648 174.223 16.1648 174.219 16.0673C174.213 15.9143 174.213 15.9143 174.213 15.9143C174.265 15.744 174.636 15.4478 175.036 15.2553C175.036 15.2553 175.036 15.2553 175.371 15.1134C175.783 14.9382 176.112 14.7111 176.347 14.4532C176.655 14.1126 176.655 14.1126 176.655 14.1126C176.89 14.2915 177.597 14.3039 178.225 14.1385C178.225 14.1385 178.225 14.1385 178.401 13.8374C178.653 13.4068 178.653 13.4068 178.653 13.4068C179.043 13.0785 179.58 12.6984 179.846 12.5627C180.112 12.4269 180.647 11.9037 180.729 11.9309C180.81 11.958 181.069 11.9642 181.114 11.879C181.157 11.7939 181.37 11.4237 181.493 11.246C181.615 11.0683 182.569 10.4846 183.024 10.0736C183.024 10.0736 183.024 10.0736 183.783 10.0304C184.206 10.007 184.206 10.007 184.206 10.007C184.158 9.50478 184.256 9.15677 184.425 9.23452C184.594 9.31226 184.989 9.27153 185.072 9.19132C185.155 9.11111 185.021 8.78782 185.013 8.73723C185.005 8.6854 185.239 8.2831 185.546 7.95979C185.854 7.63647 187.5 7.52417 187.802 7.30945C187.802 7.30945 187.802 7.30944 187.692 6.93059C187.665 6.83804 187.665 6.83806 187.665 6.83806C187.664 6.7307 187.818 6.65419 188.008 6.66777C188.008 6.66777 188.008 6.66775 188.103 6.74425C188.198 6.82076 188.15 7.01698 188.246 7.09102C188.339 7.1626 188.339 7.16261 188.339 7.16261C188.53 7.16631 188.661 7.08237 188.631 6.97748C188.631 6.97748 188.631 6.97751 188.634 6.88126C188.644 6.51475 188.644 6.51472 188.644 6.51472C189.102 6.42957 189.522 6.33581 189.579 6.30496C189.636 6.27534 189.689 6.14331 189.567 6.08284C189.446 6.02238 190.164 5.75703 190.545 5.70644C190.927 5.65708 191.926 5.08573 192.241 5.12276C192.241 5.12276 192.241 5.12277 192.541 5.17213C192.697 5.19804 192.697 5.19804 192.697 5.19804C192.838 4.91915 193.049 4.77969 193.166 4.88705C193.284 4.99441 193.878 5.2326 194.207 5.25852C194.207 5.25852 194.207 5.25851 194.236 5.67808C194.247 5.83233 194.247 5.83233 194.247 5.83233C194.825 5.96191 195.562 6.13218 195.884 6.21239C196.206 6.2926 196.975 6.68135 197.373 6.50365C197.373 6.50365 197.373 6.50362 197.755 6.37158C198.085 6.25681 198.085 6.25683 198.085 6.25683C198.469 6.16921 198.974 6.07049 199.207 6.03841C199.44 6.00632 200.209 6.02732 200.505 6.29633C200.505 6.29633 200.505 6.29631 200.937 5.9261C201.085 5.799 201.085 5.799 201.085 5.799C201.447 5.83479 201.88 5.80766 202.046 5.73732C202.213 5.66821 202.67 5.78542 202.649 6.06307C202.628 6.34073 202.703 6.6036 202.816 6.64679C202.816 6.64679 202.816 6.64676 202.908 6.63195C203.303 6.56902 203.303 6.56903 203.303 6.56903C203.732 6.48141 204.237 6.68749 204.424 7.02685C204.424 7.02685 204.424 7.02684 204.974 6.92442C205.019 6.91578 205.019 6.91579 205.019 6.91579C205.115 7.07868 205.319 7.3724 205.471 7.56737C205.623 7.76235 205.966 8.05726 205.741 8.01654C205.516 7.97582 206.003 9.0963 206.391 9.71701C206.391 9.71701 206.391 9.71701 206.81 10.2439C207.488 11.0991 207.488 11.0991 207.488 11.0991C206.802 11.5471 206.411 12.0999 206.621 12.327C206.83 12.5541 207.409 13.2167 207.46 13.2846C207.511 13.3512 207.619 13.9473 207.734 14.4804C207.849 15.0135 208.32 16.4449 208.27 16.5486C208.219 16.6522 208.472 16.8879 208.73 16.9447C208.73 16.9447 208.73 16.9447 208.785 17.0545C208.878 17.2372 208.878 17.2372 208.878 17.2372C208.835 17.4778 208.716 17.9208 208.615 18.2219C208.514 18.5218 209.238 19.3757 209.416 19.6324C209.594 19.8891 209.916 20.8602 210.047 21.1798C210.177 21.4995 211.405 21.3378 211.45 21.3687C211.45 21.3687 211.45 21.3687 211.487 21.3983C211.724 21.5895 211.724 21.5895 211.724 21.5895C211.921 21.75 211.917 22.1288 211.716 22.4311C211.515 22.7335 211.174 23.9416 211.077 24.4364C211.077 24.4364 211.077 24.4364 210.777 24.7326C210.412 25.0929 210.412 25.0929 210.412 25.0929C210.556 25.4422 210.522 25.9938 210.334 26.3196C210.334 26.3196 210.334 26.3196 210.222 26.6404C210.186 26.7404 210.186 26.7404 210.186 26.7404C210.279 26.881 210.532 26.9588 210.748 26.9143C210.748 26.9143 210.748 26.9143 210.866 26.8132C211.041 26.6638 211.041 26.6638 211.041 26.6638C211.177 26.4578 211.864 26.0851 212.568 25.8358C212.568 25.8358 212.568 25.8358 212.906 25.2435C213.214 24.703 213.214 24.703 213.214 24.703C213.893 24.3303 214.654 23.9021 214.905 23.7516C215.155 23.601 216.171 23.3011 216.472 23.4665C216.773 23.6318 217.559 24.1292 217.504 24.1785C217.448 24.2279 217.153 24.2513 216.948 24.202C216.744 24.1526 216.745 24.4858 216.967 24.3871C216.967 24.3871 216.967 24.3871 217.313 24.6944C217.804 25.1312 217.804 25.1312 217.804 25.1312C218.444 24.7104 219.429 24.1415 219.992 23.8651C219.992 23.8651 219.992 23.8651 220.417 24.0958C220.855 24.334 220.855 24.334 220.855 24.334C221.3 24.3118 221.903 24.4007 222.197 24.5327C222.49 24.6647 222.553 25.7346 222.484 26.0357C222.415 26.3368 223.363 26.791 223.435 26.8415C223.506 26.8921 223.67 27.3746 223.817 27.8152C223.817 27.8152 223.817 27.8152 224.097 28.2039C224.255 28.4223 224.255 28.4223 224.255 28.4223C223.701 28.932 223.601 29.3651 224.033 29.3861C224.465 29.4071 224.743 30.287 224.922 30.4449C225.1 30.6029 225.336 31.4556 225.467 31.8406C225.598 32.2256 226.613 33.0573 226.764 33.1425C226.914 33.2276 227.473 34.2531 227.683 34.3555C227.683 34.3555 227.683 34.3555 227.749 34.3123C227.949 34.1803 228.109 33.994 228.235 33.8064C228.382 33.5867 228.382 33.5867 228.382 33.5867C228.508 33.335 228.748 33.082 228.918 33.024C229.088 32.966 229.565 32.6958 229.591 32.5403C229.617 32.3848 230.128 32.1861 230.338 32.1812C230.549 32.1762 231.167 31.9084 231.185 31.5851C231.185 31.5851 231.185 31.5851 231.369 31.4383C231.553 31.2914 231.553 31.2914 231.553 31.2914C231.9 31.2914 232.162 31.2186 232.137 31.1322C232.111 31.0446 232.286 30.7497 232.574 30.6386C232.861 30.5276 233.329 30.0414 233.467 30.0451C233.604 30.0488 234.026 29.8699 234.32 29.7687C234.613 29.6675 235.092 29.1331 235.232 29.275C235.371 29.4157 235.67 28.8271 235.78 28.6704C235.78 28.6704 235.78 28.6704 236.045 28.8382C236.086 28.8641 236.43 28.6235 236.583 28.4717C236.745 28.3112 236.745 28.3113 236.745 28.3113C236.874 28.1089 237.26 27.9213 237.605 27.8929C237.949 27.8645 239.04 26.8921 239.563 26.5256C239.563 26.5256 239.563 26.5256 240.08 26.2184C240.286 26.0962 240.286 26.0962 240.286 26.0962C240.548 26.0135 240.958 25.9099 241.196 25.8667C241.434 25.8235 241.876 25.3003 241.976 25.2003C242.076 25.1004 242.485 24.9769 242.622 25.0386C242.759 25.1003 243.465 24.8757 244.025 24.6117C244.025 24.6117 244.025 24.6117 244.426 24.2809C244.882 23.9046 245.363 23.8046 245.992 23.7096C246.854 23.5788 247.342 23.6738 247.615 24.3575C247.735 24.6573 247.962 24.6166 248.241 24.4735C248.405 24.3895 248.405 24.3895 248.405 24.3895C248.616 24.3575 248.963 24.3871 249.179 24.4574C249.393 24.5278 250.088 24.3427 250.392 24.4698C250.392 24.4698 250.392 24.4698 250.783 24.3192C251.21 24.1538 251.41 24.5845 251.699 24.7696C252.016 24.972 252.074 25.1818 251.755 25.4372C251.717 25.4681 251.717 25.4681 251.717 25.4681C251.85 25.6532 252.214 25.7729 252.527 25.7334C252.839 25.6939 252.618 26.5096 252.908 26.7502C252.908 26.7502 252.908 26.7502 252.928 26.9958C252.982 27.6511 252.982 27.6511 252.982 27.6511C253.519 28.1644 253.812 28.6013 253.635 28.6222C253.457 28.6432 253.268 29.1467 253.611 29.6946C253.611 29.6946 253.611 29.6946 253.993 30.1277C254.084 30.2314 254.084 30.2314 254.084 30.2314C254.532 30.1833 254.888 30.3314 254.877 30.5597C254.866 30.7892 254.955 31.6 255.328 31.9442C255.7 32.2885 256.569 33.5805 256.356 33.9853C256.142 34.3901 255.012 35.5587 254.942 35.9289C254.942 35.9289 254.942 35.9289 255.359 36.1436C255.448 36.1893 255.448 36.1893 255.448 36.1893C255.718 36.0758 255.939 36.1769 255.939 36.4151C255.939 36.6533 256.145 37.1777 256.395 37.0013C256.646 36.8248 256.652 36.2522 256.743 36.0807C256.835 35.9091 257.043 35.2638 257.329 35.0564C257.616 34.8491 258.525 34.453 258.578 34.5443C258.631 34.6356 259.034 34.6813 259.293 34.3407C259.293 34.3407 259.293 34.3407 259.495 34.047C259.595 33.9026 259.595 33.9026 259.595 33.9026C259.672 33.7286 259.806 33.6089 259.892 33.6385C259.979 33.6682 260.289 33.5423 260.387 33.2955C260.387 33.2955 260.387 33.2955 260.439 33.3016C261.351 33.4016 261.351 33.4016 261.351 33.4016C262.164 33.0141 263.037 32.6674 263.291 32.6316C263.545 32.5958 264.051 32.2416 264.357 32.0393C264.663 31.8356 265.484 31.5592 265.289 31.7801C265.094 32.001 264.788 32.7031 264.933 32.813C265.079 32.924 265.659 33.1659 265.884 33.0968C266.108 33.0277 265.871 32.3613 266.361 32.2096C266.851 32.0578 267.963 31.3864 267.536 31.4568C267.109 31.5271 266.026 31.5789 266.012 31.4247C266 31.2704 266.313 31.1841 266.733 31.5074C266.733 31.5074 266.733 31.5074 266.993 30.825C267.037 30.709 267.037 30.709 267.037 30.709C267.24 30.6189 267.503 30.7139 267.622 30.92C267.622 30.92 267.622 30.92 267.793 31.0545C267.923 31.1582 267.923 31.1581 267.923 31.1581C268.126 31.0853 268.402 31.2198 268.539 31.4568C268.539 31.4568 268.539 31.4568 268.813 31.3395C269.114 31.2112 269.016 30.9829 268.793 30.7904C268.695 30.7053 268.695 30.7053 268.695 30.7053C268.647 30.5609 269.219 30.3992 269.968 30.3449C270.717 30.2919 272.941 30.9928 273.491 30.8743C274.042 30.7559 275.667 31.0718 275.815 31.3297C275.815 31.3297 275.815 31.3297 276.309 31.1174C276.628 30.9805 276.785 31.3494 276.604 31.5234C276.03 32.0726 276.03 32.0726 276.03 32.0726C276.571 32.1417 277.326 32.5094 277.706 32.8907C277.706 32.8907 277.706 32.8907 277.986 33.2782C278.133 33.4806 278.133 33.4806 278.133 33.4806C278.198 33.8101 278.158 34.0495 278.044 34.0137C277.929 33.9767 277.445 33.9038 277.235 33.8927C277.235 33.8927 277.235 33.8927 277.049 33.915C277.017 33.9187 276.966 34.1272 277.003 34.1482C277.16 34.2358 277.342 34.2975 277.523 34.3481C277.622 34.3753 277.622 34.3753 277.622 34.3753C277.757 34.3703 277.755 34.4863 277.615 34.6319C277.476 34.7775 278.161 35.3612 278.513 35.5241C278.863 35.687 279.251 36.5323 279.33 36.5422C279.409 36.5521 279.526 36.6755 279.33 36.7853C279.133 36.8951 278.725 37.3505 279.07 37.4356C279.416 37.5208 280.179 37.8663 280.112 38.0428C280.045 38.2192 279.584 38.6067 279.264 38.4364C278.943 38.2661 277.909 38.7783 277.68 38.8794C277.68 38.8794 277.68 38.8794 277.685 38.9633C277.71 39.4496 277.435 39.6852 276.88 39.8012C276.781 39.8222 276.781 39.8222 276.781 39.8222C276.736 40.0419 276.871 40.2393 277.084 40.2615C277.084 40.2615 277.084 40.2615 277.266 40.2356C277.518 40.1998 277.757 40.0912 278.009 40.0703C278.107 40.0616 278.298 40.1986 278.311 40.2825C278.327 40.38 278.327 40.38 278.327 40.38C278.214 40.496 277.825 40.6441 277.465 40.7095C277.105 40.7749 276.02 40.4577 275.926 40.3553C275.926 40.3553 275.926 40.3553 275.858 40.3627C275.676 40.3812 275.486 40.4368 275.339 40.5232C275.304 40.5441 275.391 40.786 275.493 40.8539C275.646 40.9551 275.892 40.9625 276.046 41.0636C276.212 41.1722 276.212 41.1723 276.212 41.1723C276.372 41.3746 276.802 41.403 277.17 41.2364C277.538 41.0686 278.885 41.034 279.191 40.923C279.497 40.8119 280.689 40.4676 281.1 40.3109C281.1 40.3109 281.1 40.3109 281.172 40.3788C281.488 40.6762 281.488 40.6762 281.488 40.6762C281.927 40.6737 282.366 40.7045 282.464 40.7428C282.561 40.7823 282.877 40.9501 282.928 41.0488C282.979 41.1476 283.144 40.7477 282.913 40.4034C282.913 40.4034 282.913 40.4035 282.452 40.2665C282.374 40.243 282.374 40.243 282.374 40.243C282.358 40.0616 282.454 39.9173 282.585 39.9222C282.585 39.9222 282.585 39.9222 282.698 39.9469C282.796 39.9678 282.796 39.9678 282.796 39.9678C282.896 40.0147 283.021 39.8543 283.075 39.6124C283.128 39.3706 284.378 39.4162 284.809 39.3385C284.809 39.3385 284.809 39.3385 285.189 39.2114C285.282 39.1805 285.359 38.9683 285.321 38.872C285.29 38.7906 285.085 38.7301 284.947 38.7091C284.87 38.6968 284.777 38.8054 284.679 38.8239C284.572 38.8436 284.572 38.8437 284.572 38.8437C284.443 38.8313 284.39 38.6635 284.453 38.471C284.453 38.471 284.453 38.471 284.466 38.4734C284.904 38.5475 285.598 38.0687 285.745 38.8572C285.759 38.9337 285.759 38.9337 285.759 38.9337C286.292 38.8572 286.588 38.7523 286.418 38.6993C286.247 38.6462 285.84 38.3599 286.113 38.2501C286.386 38.1402 287.026 38.0452 287.026 38.2451C287.026 38.4451 287.132 38.9473 287.263 38.8881C287.394 38.8288 287.734 39.0226 287.802 39.4175C287.802 39.4175 287.802 39.4175 287.331 39.6717C287.104 39.7938 286.906 39.9691 286.748 40.1505C286.677 40.2319 286.674 40.4294 286.747 40.4997C286.827 40.5762 287.05 40.6157 287.178 40.5848C287.37 40.5392 287.523 40.3825 287.715 40.3381C288.017 40.2677 288.36 40.2961 288.648 40.206C289.265 40.011 288.65 39.7371 288.682 39.5014C288.693 39.4224 288.693 39.4224 288.693 39.4224C288.754 39.3373 289.711 39.2743 290.054 39.2607ZM260.688 34.4777C260.355 34.4234 260.033 34.4666 259.973 34.5739C259.912 34.6813 259.662 34.9873 259.591 35.0465C259.521 35.1058 258.484 35.2255 258.322 35.2934C258.322 35.2934 258.322 35.2934 258.306 35.3773C258.286 35.476 258.412 35.6895 258.477 35.6895C259.096 35.6944 259.096 35.6944 259.096 35.6944C258.852 35.924 258.683 36.172 258.719 36.2448C258.755 36.3176 259.003 36.4459 259.179 36.3583C259.179 36.3583 259.179 36.3583 259.28 36.2435C259.509 35.9844 259.717 35.4636 259.904 35.4723C260.888 35.5192 260.888 35.5192 260.888 35.5192C261.46 34.9577 261.95 34.4209 261.977 34.3283C261.977 34.3283 261.977 34.3284 261.95 34.2506C261.929 34.1914 261.929 34.1914 261.929 34.1914C261.836 34.1408 261.022 34.5307 260.688 34.4777ZM166.012 62.1383C165.786 62.0482 165.338 62.511 165.016 63.1675C165.016 63.1675 165.016 63.1675 164.073 63.1489C163.945 63.1465 163.776 63.2612 163.692 63.3599C163.577 63.4945 163.577 63.4945 163.577 63.4945C163.505 63.6734 163.54 63.8449 163.655 63.8783C163.768 63.9116 164.151 63.8178 164.324 63.7364C164.496 63.6537 165.207 63.265 165.535 63.0774C165.864 62.8898 166.238 62.2296 166.012 62.1383ZM275.204 31.2853C274.712 31.5457 274.479 31.901 274.685 32.075C274.892 32.249 275.586 32.6834 275.771 32.7167C275.771 32.7167 275.771 32.7167 275.857 32.6575C275.953 32.5921 275.953 32.5921 275.953 32.5921C275.963 32.4366 275.845 32.1096 275.69 31.8652C275.69 31.8652 275.69 31.8652 275.518 31.6592C275.204 31.2853 275.204 31.2853 275.204 31.2853ZM162.068 63.3526C161.923 63.4673 161.946 63.7018 162.116 63.8733C162.286 64.0448 162.811 64.2633 162.969 64.0485C163.129 63.8338 162.212 63.2378 162.068 63.3526ZM264.282 33.1486C264.298 33.0005 264.198 32.7994 264.06 32.7019C264.06 32.7019 264.06 32.7019 263.984 32.7266C263.614 32.85 263.614 32.85 263.614 32.85C263.234 33.0314 262.885 33.2572 262.841 33.3535C262.795 33.4497 262.816 33.7113 262.978 33.7126C263.139 33.7138 263.718 33.5164 263.903 33.272C263.903 33.272 263.903 33.272 264.228 33.1647C264.282 33.1486 264.282 33.1486 264.282 33.1486Z" />
<path d="M287.087 6.56293C287.042 6.49383 287.279 6.43955 287.615 6.44325C287.95 6.44696 288.938 6.40252 289.065 6.37291C289.192 6.34329 289.414 6.13598 289.526 6.02862C289.639 5.92003 290.184 6.07551 290.285 6.07058C290.385 6.06564 290.553 5.96446 290.426 5.8645C290.426 5.8645 290.426 5.86448 290.354 5.75465C290.309 5.68431 290.309 5.68434 290.309 5.68434C290.33 5.50541 290.537 5.46342 290.77 5.58929C290.77 5.58929 290.77 5.5893 290.965 5.61151C291.343 5.6547 291.343 5.6547 291.343 5.6547C291.545 5.39803 291.785 5.20306 291.875 5.22034C291.965 5.23762 292.295 5.15986 292.315 4.98956C292.335 4.81927 292.483 4.33059 292.59 4.33922C292.59 4.33922 292.59 4.33926 292.645 4.37628C292.93 4.56632 293.109 4.87483 293.594 4.823C293.718 4.80942 293.977 4.98092 293.992 5.08458C294.016 5.2487 294.016 5.2487 294.016 5.2487C293.922 5.4375 293.919 5.65965 294.011 5.74109C294.102 5.82254 294.055 6.15695 293.824 6.1224C293.594 6.08784 293.053 5.88548 292.901 5.9225C292.75 5.95952 292.453 6.08415 292.853 6.23594C293.253 6.38772 293.567 6.96277 293.407 6.75052C293.248 6.53826 292.444 6.88505 292.308 6.81224C292.172 6.73943 291.894 6.46054 291.724 6.39143C291.554 6.32233 291.158 6.37291 291.353 6.59626C291.548 6.81962 291.718 7.5366 291.388 7.70936C291.388 7.70936 291.388 7.70935 291.049 7.77722C290.841 7.81918 290.841 7.81918 290.841 7.81918C290.583 7.70811 290.293 7.51192 290.198 7.38481C290.103 7.25771 289.521 7.43662 289.412 7.45637C289.3 7.47611 288.936 7.40701 288.853 7.26509C288.769 7.12195 288.338 6.71349 288.106 6.71719C287.874 6.72089 287.131 6.63204 287.087 6.56293Z" />
<path d="M288.43 2.94106C288.013 2.92131 287.626 2.7202 287.569 2.49314C287.512 2.26731 287.652 1.74035 288.005 1.82427C288.358 1.90818 289.276 2.14884 289.484 1.75396C289.484 1.75396 289.484 1.75396 289.628 1.44545C289.692 1.30601 289.692 1.306 289.692 1.306C289.713 1.12953 289.941 0.914793 290.2 0.829646C290.459 0.744498 291.239 0.368136 291.372 0.220054C291.372 0.220054 291.372 0.220051 291.483 0.224987C291.975 0.245965 291.975 0.245963 291.975 0.245963C292.502 0.295324 293.089 0.212661 293.28 0.0621102C293.471 -0.0884405 294.211 0.0682731 294.048 0.178101C293.886 0.287929 293.67 0.78278 293.618 1.00367C293.618 1.00367 293.618 1.00364 293.191 0.781517C292.914 0.637137 292.271 0.534713 292.345 1.17517C292.355 1.26032 292.368 1.38127 292.31 1.42817C292.044 1.64782 291.293 1.52935 291.54 2.097C291.744 2.56592 291.744 2.56593 291.744 2.56593C291.342 2.75103 290.823 2.92009 290.591 2.9423C290.359 2.96328 290.473 2.38821 290.551 2.31294C290.551 2.31294 290.551 2.31294 290.638 2.25987C291.2 1.92299 291.2 1.92301 291.2 1.92301C290.791 1.73914 290.258 1.7095 290.012 1.85635C289.768 2.0032 289.583 2.74487 289.487 2.83742C289.487 2.83742 289.487 2.83741 289.373 2.90035C289.096 3.0546 289.001 2.43266 288.593 2.79546C288.431 2.94108 288.43 2.94106 288.43 2.94106Z" />
<path d="M290.901 3.08545C290.963 2.9855 291.205 2.97193 291.439 3.05461C291.674 3.13729 292.398 2.40304 292.804 2.1982C292.804 2.1982 292.804 2.19819 293.228 2.11181C293.418 2.07232 293.674 2.32776 293.915 2.35121C294.734 2.42895 294.734 2.42897 294.734 2.42897C294.499 2.82016 294.018 3.08668 293.663 3.02128C293.307 2.95588 291.982 3.20145 291.886 3.22984C291.791 3.25699 291.539 3.35941 291.349 3.36311C291.161 3.36682 290.839 3.18541 290.901 3.08545Z" />
<path d="M282.824 12.9505C282.553 12.9542 282.242 12.8876 282.134 12.8037C282.026 12.7198 282.241 12.31 282.334 12.1854C282.428 12.0608 282.069 11.7881 282.159 11.6894C282.249 11.5906 282.54 11.54 282.719 11.677C282.898 11.8128 283.096 12.9468 282.824 12.9505Z" />
</svg>
