<?xml version="1.0" encoding="UTF-8" standalone="no"?>
<svg
   width="896"
   height="494"
   viewBox="0 0 896 494"
   fill="none"
   version="1.1"
   id="svg1"
   xmlns="http://www.w3.org/2000/svg"
   xmlns:svg="http://www.w3.org/2000/svg">
  <defs
     id="defs1" />
  <path
     fill-rule="evenodd"
     clip-rule="evenodd"
     d="M 465.065,365.13 C 423.075,441.91 341.425,494 247.581,494 110.846,494 0,383.414 0,247 0,110.586 110.846,0 247.581,0 349.114,0 436.372,60.9748 474.571,148.223 l 4.146,-17.401 h 54.243 l -38.433,134.002 c -2.504,35.044 -12.337,68.066 -27.978,97.55 l -0.79,2.756 z m 108.003,-7.894 c 12.997,7.551 28.402,11.327 46.215,11.327 17.813,0 33.18,-3.776 46.101,-11.327 12.996,-7.627 23.012,-18.229 30.045,-31.805 7.034,-13.653 10.55,-29.479 10.55,-47.48 0,-18.153 -3.516,-34.017 -10.55,-47.594 -7.033,-13.652 -17.049,-24.254 -30.045,-31.805 -12.921,-7.627 -28.288,-11.441 -46.101,-11.441 -17.813,0 -33.218,3.814 -46.215,11.441 -12.92,7.551 -22.897,18.153 -29.931,31.805 -7.033,13.577 -10.55,29.441 -10.55,47.594 0,18.001 3.517,33.827 10.55,47.48 7.034,13.576 17.011,24.178 29.931,31.805 z m 66.743,-33.293 c -5.429,4.577 -12.195,6.865 -20.298,6.865 -8.181,0 -15.061,-2.288 -20.642,-6.865 -5.505,-4.652 -9.671,-10.983 -12.5,-18.991 -2.752,-8.009 -4.129,-17.123 -4.129,-27.344 0,-10.22 1.377,-19.335 4.129,-27.344 2.829,-8.008 6.995,-14.339 12.5,-18.991 5.581,-4.653 12.461,-6.979 20.642,-6.979 8.103,0 14.869,2.326 20.298,6.979 5.428,4.652 9.518,10.983 12.27,18.991 2.829,8.009 4.243,17.124 4.243,27.344 0,10.221 -1.414,19.335 -4.243,27.344 -2.752,8.008 -6.842,14.339 -12.27,18.991 z m 177.52,44.62 c -18.042,0 -33.562,-3.814 -46.559,-11.441 -12.92,-7.704 -22.859,-18.382 -29.816,-32.035 -6.881,-13.652 -10.321,-29.364 -10.321,-47.136 0,-18 3.479,-33.788 10.436,-47.365 7.033,-13.653 17.01,-24.293 29.931,-31.92 12.92,-7.703 28.287,-11.555 46.1,-11.555 15.367,0 28.822,2.784 40.366,8.352 11.545,5.568 20.68,13.386 27.408,23.454 6.728,10.067 10.436,21.89 11.124,35.466 h -46.1 c -1.3,-8.771 -4.74,-15.826 -10.321,-21.165 -5.505,-5.416 -12.73,-8.123 -21.674,-8.123 -7.569,0 -14.182,2.059 -19.84,6.178 -5.581,4.042 -9.938,9.953 -13.073,17.733 -3.134,7.78 -4.702,17.199 -4.702,28.259 0,11.212 1.529,20.746 4.588,28.602 3.134,7.856 7.53,13.843 13.187,17.962 5.658,4.119 12.271,6.178 19.84,6.178 5.581,0 10.588,-1.144 15.022,-3.432 4.511,-2.288 8.219,-5.606 11.124,-9.954 2.982,-4.424 4.931,-9.724 5.849,-15.902 H 896 c -0.764,13.423 -4.434,25.246 -11.009,35.466 -6.498,10.144 -15.482,18.077 -26.949,23.797 -11.468,5.72 -25.038,8.581 -40.711,8.581 z M 113.951,178.659 161.886,354.39 h 51.605 l 30.275,-110.519 h 2.179 L 276.22,354.39 h 51.719 L 375.76,178.659 h -49.311 l -26.835,117.383 h -1.491 L 269.224,178.659 h -48.508 l -28.44,118.069 H 190.67 L 163.377,178.659 Z"
     fill="#ffffff"
     id="path1"
     style="display:inline;fill:#000000" />
  <rect
     style="fill:#000000;stroke-width:0.158586"
     id="rect5"
     width="330.25613"
     height="243.02443"
     x="68.329407"
     y="113.78789" />
  <rect
     style="fill:#000000;stroke-width:0.132283"
     id="rect6"
     width="107.75758"
     height="107.75758"
     x="567.63635"
     y="225.69698" />
  <rect
     style="fill:#000000;stroke-width:0.124477"
     id="rect7"
     width="124.65754"
     height="95.933929"
     x="766.18182"
     y="230.35585" />
  <rect
     style="fill:#000000;stroke-width:0.0569605"
     id="rect8"
     width="58.750217"
     height="9.1172018"
     x="837.00537"
     y="252.42595"
     ry="0" />
  <path
     fill-rule="evenodd"
     clip-rule="evenodd"
     d="M 451.74388,353.21963 C 412.25896,422.21895 335.48013,469.0303 247.23477,469.0303 c -128.5775,0 -232.810527,-99.37952 -232.810527,-221.9697 0,-122.59018 104.233027,-221.969691 232.810527,-221.969691 95.47564,0 177.52791,54.795781 213.448,133.202481 l 3.89864,-15.63763 h 51.00691 L 479.4482,263.07837 c -2.35461,31.49274 -11.60098,61.16837 -26.30885,87.66455 l -0.74287,2.47671 z m 123.62025,-3.7001 c 12.22161,6.7858 26.70756,10.17915 43.45785,10.17915 16.7503,0 31.20052,-3.39335 43.35067,-10.17915 12.22066,-6.8541 21.63912,-16.38172 28.25254,-28.58197 6.61435,-12.26945 9.92059,-26.49168 9.92059,-42.66851 0,-16.31342 -3.30624,-30.56981 -9.92059,-42.77095 -6.61342,-12.26855 -16.03188,-21.79617 -28.25254,-28.58197 -12.15015,-6.85411 -26.60037,-10.2816 -43.35067,-10.2816 -16.75029,0 -31.23624,3.42749 -43.45785,10.2816 -12.1492,6.7858 -21.53099,16.31342 -28.14534,28.58197 -6.61342,12.20114 -9.92059,26.45753 -9.92059,42.77095 0,16.17683 3.30717,30.39906 9.92059,42.66851 6.61435,12.20025 15.99614,21.72787 28.14534,28.58197 z m 62.76117,-29.91918 c -5.10511,4.11318 -11.46745,6.16932 -19.08704,6.16932 -7.69292,0 -14.16246,-2.05614 -19.41051,-6.16932 -5.17658,-4.18058 -9.09404,-9.87001 -11.75426,-17.0665 -2.58782,-7.19739 -3.88267,-15.38781 -3.88267,-24.57304 0,-9.18433 1.29485,-17.37565 3.88267,-24.57303 2.66022,-7.19649 6.57768,-12.88593 11.75426,-17.06651 5.24805,-4.18147 11.71759,-6.27177 19.41051,-6.27177 7.61959,0 13.98193,2.0903 19.08704,6.27177 5.10417,4.18058 8.95017,9.87002 11.53798,17.06651 2.66023,7.19738 3.98988,15.3887 3.98988,24.57303 0,9.18523 -1.32965,17.37565 -3.98988,24.57304 -2.58781,7.19649 -6.43381,12.88592 -11.53798,17.0665 z m 180.50509,40.09833 c -16.96564,0 -31.55973,-3.4275 -43.78133,-10.2816 -12.14921,-6.92329 -21.49527,-16.51922 -28.03721,-28.78866 -6.4705,-12.26855 -9.70527,-26.38833 -9.70527,-42.35937 0,-16.17593 3.27146,-30.36401 9.8134,-42.56516 6.61342,-12.26944 15.9952,-21.83121 28.14535,-28.68531 12.1492,-6.9224 26.59942,-10.38405 43.34972,-10.38405 14.45022,0 27.10251,2.50187 37.95779,7.50563 10.85625,5.00375 19.44626,12.0295 25.77287,21.07723 6.32661,9.04684 9.8134,19.67173 10.46035,31.87198 h -43.34971 c -1.22244,-7.88218 -4.45723,-14.22224 -9.70527,-19.0202 -5.17657,-4.86716 -11.97054,-7.29983 -20.38094,-7.29983 -7.11744,0 -13.33592,1.85034 -18.65637,5.55193 -5.24803,3.6324 -9.34511,8.9444 -12.29307,15.93599 -2.94703,6.99159 -4.42149,15.4561 -4.42149,25.39531 0,10.07581 1.43779,18.64366 4.31428,25.70355 2.94704,7.05989 7.08077,12.44019 12.40028,16.14178 5.32045,3.70159 11.53893,5.55194 18.65637,5.55194 5.24803,0 9.95633,-1.02807 14.1258,-3.08421 4.24188,-2.05615 7.72866,-5.03791 10.46035,-8.94529 2.8041,-3.97568 4.63683,-8.73859 5.50006,-14.29054 h 43.34971 c -0.71842,12.06276 -4.16947,22.68765 -10.35221,31.87198 -6.11034,9.11603 -14.55836,16.24513 -25.34125,21.38548 -10.78383,5.14035 -23.54425,7.71142 -38.28221,7.71142 z m -697.05336,-174.05359 45.07523,157.9229 h 48.5263 l 28.46882,-99.3193 h 2.049 l 28.46882,99.3193 h 48.6335 l 44.96804,-157.9229 h -46.36915 l -25.23405,105.48773 h -1.40205 L 267.58657,185.64509 H 221.97252 L 195.22923,291.7493 h -1.51019 L 168.05432,185.64509 Z"
     fill="#ffffff"
     id="path5"
     style="display:inline;fill:#ffffff;stroke-width:0.919267" />
  <rect
     style="fill:#000000;stroke-width:0.168086"
     id="rect10"
     width="46.87392"
     height="43.60907"
     x="848.86102"
     y="257.45676" />
</svg>
