<svg width="896" height="494" viewBox="0 0 896 494" fill="none" xmlns="http://www.w3.org/2000/svg">
<path fill-rule="evenodd" clip-rule="evenodd" d="M465.065 365.13C423.075 441.91 341.425 494 247.581 494C110.846 494 0 383.414 0 247C0 110.586 110.846 0 247.581 0C349.114 0 436.372 60.9748 474.571 148.223L478.717 130.822H532.96L494.527 264.824C492.023 299.868 482.19 332.89 466.549 362.374L465.759 365.13H465.065ZM573.068 357.236C586.065 364.787 601.47 368.563 619.283 368.563C637.096 368.563 652.463 364.787 665.384 357.236C678.38 349.609 688.396 339.007 695.429 325.431C702.463 311.778 705.979 295.952 705.979 277.951C705.979 259.798 702.463 243.934 695.429 230.357C688.396 216.705 678.38 206.103 665.384 198.552C652.463 190.925 637.096 187.111 619.283 187.111C601.47 187.111 586.065 190.925 573.068 198.552C560.148 206.103 550.171 216.705 543.137 230.357C536.104 243.934 532.587 259.798 532.587 277.951C532.587 295.952 536.104 311.778 543.137 325.431C550.171 339.007 560.148 349.609 573.068 357.236ZM639.811 323.943C634.382 328.52 627.616 330.808 619.513 330.808C611.332 330.808 604.452 328.52 598.871 323.943C593.366 319.291 589.2 312.96 586.371 304.952C583.619 296.943 582.242 287.829 582.242 277.608C582.242 267.388 583.619 258.273 586.371 250.264C589.2 242.256 593.366 235.925 598.871 231.273C604.452 226.62 611.332 224.294 619.513 224.294C627.616 224.294 634.382 226.62 639.811 231.273C645.239 235.925 649.329 242.256 652.081 250.264C654.91 258.273 656.324 267.388 656.324 277.608C656.324 287.829 654.91 296.943 652.081 304.952C649.329 312.96 645.239 319.291 639.811 323.943ZM817.331 368.563C799.289 368.563 783.769 364.749 770.772 357.122C757.852 349.418 747.913 338.74 740.956 325.087C734.075 311.435 730.635 295.723 730.635 277.951C730.635 259.951 734.114 244.163 741.071 230.586C748.104 216.933 758.081 206.293 771.002 198.666C783.922 190.963 799.289 187.111 817.102 187.111C832.469 187.111 845.924 189.895 857.468 195.463C869.013 201.031 878.148 208.849 884.876 218.917C891.604 228.984 895.312 240.807 896 254.383H849.9C848.6 245.612 845.16 238.557 839.579 233.218C834.074 227.802 826.849 225.095 817.905 225.095C810.336 225.095 803.723 227.154 798.065 231.273C792.484 235.315 788.127 241.226 784.992 249.006C781.858 256.786 780.29 266.205 780.29 277.265C780.29 288.477 781.819 298.011 784.878 305.867C788.012 313.723 792.408 319.71 798.065 323.829C803.723 327.948 810.336 330.007 817.905 330.007C823.486 330.007 828.493 328.863 832.927 326.575C837.438 324.287 841.146 320.969 844.051 316.621C847.033 312.197 848.982 306.897 849.9 300.719H896C895.236 314.142 891.566 325.965 884.991 336.185C878.493 346.329 869.509 354.262 858.042 359.982C846.574 365.702 833.004 368.563 817.331 368.563ZM113.951 178.659L161.886 354.39H213.491L243.766 243.871H245.945L276.22 354.39H327.939L375.76 178.659H326.449L299.614 296.042H298.123L269.224 178.659H220.716L192.276 296.728H190.67L163.377 178.659H113.951Z" fill="white"/>
</svg>
